<svg xmlns="http://www.w3.org/2000/svg" viewBox="0 0 92.33 108"><defs><style>.cls-1{fill:#39607a;}</style></defs><title>BOA_DSP_LogoC-5405</title><g id="Layer_2" data-name="Layer 2"><g id="Layer_1-2" data-name="Layer 1"><path class="cls-1" d="M17,47c-2.7,0-4.18,2.34-4.18,6.83,0,5.51,1.83,7.8,4.59,7.8a4.93,4.93,0,0,0,4.33-2.24V49.26A5.61,5.61,0,0,0,17,47Z"/><path class="cls-1" d="M69.39,61.59c2.7,0,4.18-2.34,4.18-6.83,0-5.51-1.83-7.8-4.59-7.8a4.93,4.93,0,0,0-4.33,2.24V59.3A5.6,5.6,0,0,0,69.39,61.59Z"/><path class="cls-1" d="M86.4,0,28.79,28.81V67.66h-7V66a8.25,8.25,0,0,1-5.66,2.25c-5.71,0-10.4-4.28-10.4-14.27,0-8,3.77-13.61,10.4-13.61a8.48,8.48,0,0,1,5.66,2.09V32.32L0,43.2V108L57.62,79.19V40.9h7v1.68a8.25,8.25,0,0,1,5.66-2.24c5.71,0,10.4,4.28,10.4,14.27,0,8-3.77,13.61-10.4,13.61a8.48,8.48,0,0,1-5.66-2.09v9.55L86.4,64.8Zm-43,68.22a21,21,0,0,1-11.21-3.11l2.35-5.35a18.67,18.67,0,0,0,9.27,2.45c2.75,0,3.57-.66,3.57-2,0-1.22-1-1.83-3.92-2.7C37,55.53,32.85,53.95,32.85,48.29s4.43-7.95,10.7-7.95a21.33,21.33,0,0,1,9.89,2.6L51.2,48.49a17.35,17.35,0,0,0-7.8-2.14c-2.85,0-3.62.56-3.62,1.73s.82,1.58,5.56,3.11,8.92,3.31,8.92,8.66C54.26,66,49.37,68.22,43.35,68.22Z"/><path class="cls-1" d="M90.17,62.57a2.17,2.17,0,1,1,2.17-2.16A2.12,2.12,0,0,1,90.17,62.57Zm0-4A1.82,1.82,0,1,0,92,60.41,1.78,1.78,0,0,0,90.17,58.59Zm.49,2,.49,1h-.47l-.46-.91h-.46v.91h-.4V59.18h1a.69.69,0,0,1,.77.71A.67.67,0,0,1,90.65,60.59Zm-.28-1h-.62v.67h.62c.22,0,.38-.1.38-.34A.33.33,0,0,0,90.37,59.57Z"/></g></g></svg>