<?xml version="1.0" encoding="UTF-8" standalone="no"?>
<svg
   xmlns:dc="http://purl.org/dc/elements/1.1/"
   xmlns:cc="http://creativecommons.org/ns#"
   xmlns:rdf="http://www.w3.org/1999/02/22-rdf-syntax-ns#"
   xmlns:svg="http://www.w3.org/2000/svg"
   xmlns="http://www.w3.org/2000/svg"
   xmlns:sodipodi="http://sodipodi.sourceforge.net/DTD/sodipodi-0.dtd"
   xmlns:inkscape="http://www.inkscape.org/namespaces/inkscape"
   class="iconic iconic-magnifying-glass"
   width="128"
   height="128"
   viewBox="0 0 128 128"
   version="1.1"
   id="svg3809"
   sodipodi:docname="white-magnifying-glass.svg"
   inkscape:version="0.92.3 (2405546, 2018-03-11)">
  <metadata
     id="metadata3813">
    <rdf:RDF>
      <cc:Work
         rdf:about="">
        <dc:format>image/svg+xml</dc:format>
        <dc:type
           rdf:resource="http://purl.org/dc/dcmitype/StillImage" />
        <dc:title></dc:title>
      </cc:Work>
    </rdf:RDF>
  </metadata>
  <sodipodi:namedview
     pagecolor="#ffffff"
     bordercolor="#666666"
     borderopacity="1"
     objecttolerance="10"
     gridtolerance="10"
     guidetolerance="10"
     inkscape:pageopacity="0"
     inkscape:pageshadow="2"
     inkscape:window-width="1920"
     inkscape:window-height="1017"
     id="namedview3811"
     showgrid="false"
     inkscape:zoom="1.84375"
     inkscape:cx="64"
     inkscape:cy="64"
     inkscape:window-x="-8"
     inkscape:window-y="-8"
     inkscape:window-maximized="1"
     inkscape:current-layer="svg3809" />
  <g
     class="iconic-metadata"
     id="g3778">
    <title
       id="title3776">Magnifying Glass</title>
  </g>
  <defs
     id="defs3783">
    <clipPath
       id="iconic-size-lg-magnifying-glass-clip-0">
      <path
         d="M95.707 83.707l-6.707 6.707-1.414-1.414 6.707-6.707-4.293-4.293-12 12 38 38 12-12z"
         id="path3780" />
    </clipPath>
  </defs>
  <g
     class="iconic-magnifying-glass-lg iconic-container iconic-lg"
     data-width="128"
     data-height="128"
     display="inline"
     id="g3793">
    <path
       stroke="#000"
       stroke-width="8"
       class="iconic-magnifying-glass-handle iconic-magnifying-glass-handle-connector iconic-property-stroke"
       d="M85 85l-7.912-7.912"
       fill="none"
       id="path3785" />
    <path
       d="M126.939 117.061l-9.879 9.879c-.586.586-1.536.586-2.121 0l-35.879-35.879c-.586-.586-.586-1.536 0-2.121l9.879-9.879c.586-.586 1.536-.586 2.121 0l35.879 35.879c.586.586.586 1.535 0 2.121z"
       clip-path="url(#iconic-size-lg-magnifying-glass-clip-0)"
       class="iconic-magnifying-glass-handle iconic-property-fill"
       id="path3787" />
    <circle
       stroke="#000"
       stroke-width="8"
       cx="46"
       cy="46"
       r="42"
       class="iconic-magnifying-glass-rim iconic-property-stroke"
       fill="none"
       id="circle3789" />
    <path
       fill="#fff"
       stroke="#000"
       stroke-width="2"
       stroke-linecap="round"
       d="M13 46c0-18.225 14.775-33 33-33"
       class="iconic-magnifying-glass-reflection iconic-property-accent iconic-property-stroke"
       id="path3791" />
  </g>
  <g
     class="iconic-magnifying-glass-md iconic-container iconic-md"
     data-width="32"
     data-height="32"
     display="none"
     transform="scale(4)"
     id="g3801">
    <path
       fill="#fff"
       stroke="#000"
       stroke-width="3"
       class="iconic-magnifying-glass-handle iconic-magnifying-glass-handle-connector iconic-property-stroke"
       d="M19.5 19.582l9.438 9.438"
       id="path3795" />
    <circle
       stroke="#000"
       stroke-width="3"
       cx="12"
       cy="12"
       r="10.5"
       class="iconic-magnifying-glass-rim iconic-property-stroke"
       fill="none"
       id="circle3797" />
    <path
       d="M23.646 20.354l-3.293 3.293c-.195.195-.195.512 0 .707l7.293 7.293c.195.195.512.195.707 0l3.293-3.293c.195-.195.195-.512 0-.707l-7.293-7.293c-.195-.195-.512-.195-.707 0z"
       class="iconic-magnifying-glass-handle iconic-property-fill"
       id="path3799" />
  </g>
  <g
     class="iconic-magnifying-glass-sm iconic-container iconic-sm"
     data-width="16"
     data-height="16"
     display="none"
     transform="scale(8)"
     id="g3807">
    <path
       stroke="#000"
       stroke-width="3"
       stroke-linecap="round"
       class="iconic-magnifying-glass-handle iconic-property-stroke"
       d="M11 11l3.5 3.5"
       fill="none"
       id="path3803" />
    <circle
       stroke="#000"
       stroke-width="2"
       cx="6.5"
       cy="6.5"
       r="5.5"
       class="iconic-magnifying-glass-rim iconic-property-stroke"
       fill="none"
       id="circle3805" />
  </g>
  <path
     style="fill:#ffffff;stroke-width:0.54237288"
     d="M 44.663135,-0.55275423 C 24.781615,-0.44022644 6.157062,14.145895 1.0868644,33.340254 -2.5867426,46.923177 -0.27966037,62.221923 8.3559322,73.50445 19.076955,88.547715 39.200427,95.970213 57.098517,91.280933 c 6.689128,-1.584868 12.839712,-4.870563 18.37076,-8.891949 2.02592,2.264234 6.354701,4.423057 2.326276,6.966102 0.02273,2.98899 4.176211,4.652068 5.809117,7.104185 10.633681,10.543209 21.07421,21.295699 31.91228,31.624629 2.57611,0.18183 3.93033,-3.17257 5.88771,-4.48729 2.14795,-2.4027 4.80467,-4.49228 6.48623,-7.24788 -1.08552,-3.03241 -4.41453,-4.93873 -6.38901,-7.48176 -8.56119,-8.5684 -16.97252,-17.468445 -25.832928,-25.619713 -2.635119,0.915905 -4.261082,4.106376 -6.711328,5.715878 1.764903,-2.36377 4.506788,-4.024271 5.884535,-6.596399 -1.471588,-1.617475 -3.964914,-5.713573 -6.644068,-3.687501 -1.973885,2.829158 -3.722094,-1.744911 -5.59961,-2.841404 -0.07023,-1.768613 2.592234,-3.723537 3.333722,-5.774059 4.137937,-7.068236 6.89632,-15.057188 6.476779,-23.33679 C 93.144434,33.881981 87.638102,21.083933 78.143007,12.469492 69.384027,3.6786247 57.079496,-1.1908732 44.663135,-0.55275423 Z M 46.138771,8.9970338 C 60.711024,8.5186039 74.552738,17.956423 80.118644,31.257627 84.215675,40.448696 83.970023,51.208516 80.224575,60.466316 74.250885,74.386598 59.424396,84.395851 44.042373,83.149576 27.960294,82.503653 13.522832,70.348111 9.8432206,54.731146 7.034957,42.440522 10.497509,28.227913 20.083687,19.419703 26.87009,12.439053 36.716199,8.8033144 46.138771,8.9970338 Z"
     id="path3817"
     inkscape:connector-curvature="0" />
  <path
     style="fill:#ffffff;stroke-width:0.54237288"
     d="m 44.527542,11.279873 c -17.470579,0.571482 -33.35119,16.31307 -33.005296,33.963983 -0.414551,1.897178 2.316292,2.955724 2.761652,0.866526 0.969771,-6.970186 2.809346,-14.095347 7.45339,-19.608051 5.539583,-7.179745 14.330396,-11.259876 23.28178,-11.871823 1.976129,0.226828 3.685531,-2.662058 1.164195,-3.221398 -0.541409,-0.125423 -1.102751,-0.13431 -1.655721,-0.129237 z"
     id="path3819"
     inkscape:connector-curvature="0" />
</svg>
